<svg xmlns="http://www.w3.org/2000/svg" xmlns:xlink="http://www.w3.org/1999/xlink" width="500" zoomAndPan="magnify" viewBox="0 0 375 374.999991" height="500" preserveAspectRatio="xMidYMid meet" version="1.0"><defs><g/><clipPath id="7a1e89727a"><path d="M 37.5 147.070312 L 95.25 147.070312 L 95.25 195.820312 L 37.5 195.820312 Z M 37.5 147.070312 " clip-rule="nonzero"/></clipPath></defs><g fill="#ffffff" fill-opacity="1"><g transform="translate(106.258632, 182.787103)"><g><path d="M 8.828125 0.0429688 C 10.84375 0.0429688 11.265625 -0.460938 11.265625 -1.386719 C 11.265625 -2.269531 10.71875 -2.773438 9.960938 -3.109375 C 8.28125 -3.867188 8.027344 -4.667969 8.027344 -8.027344 L 8.027344 -18.371094 C 8.027344 -18.875 8.238281 -19.167969 8.574219 -19.167969 C 8.742188 -19.167969 8.996094 -19.085938 9.289062 -18.789062 L 25.601562 -0.589844 C 25.8125 -0.335938 26.230469 0.125 27.070312 0.125 C 27.828125 0.125 28.417969 -0.421875 28.417969 -1.472656 L 28.417969 -18.957031 C 28.417969 -25.097656 28.628906 -25.433594 30.394531 -26.316406 C 31.109375 -26.652344 31.652344 -27.15625 31.652344 -28.039062 C 31.652344 -28.964844 31.191406 -29.46875 29.175781 -29.46875 L 24.003906 -29.46875 C 21.984375 -29.46875 21.566406 -28.964844 21.566406 -28.039062 C 21.566406 -27.15625 22.113281 -26.652344 22.867188 -26.316406 C 24.550781 -25.515625 24.800781 -24.761719 24.800781 -21.398438 L 24.800781 -15.597656 C 24.800781 -15.007812 24.507812 -14.714844 24.171875 -14.714844 C 23.878906 -14.714844 23.5 -14.882812 23.203125 -15.21875 L 11.558594 -28.667969 C 11.140625 -29.175781 10.59375 -29.425781 9.585938 -29.425781 L 3.574219 -29.46875 C 1.554688 -29.46875 1.136719 -28.964844 1.136719 -28.039062 C 1.136719 -27.15625 1.679688 -26.652344 2.4375 -26.316406 C 4.121094 -25.515625 4.371094 -24.761719 4.371094 -21.398438 L 4.371094 -10.425781 C 4.371094 -4.289062 4.160156 -3.953125 2.394531 -3.109375 C 1.679688 -2.773438 1.136719 -2.269531 1.136719 -1.386719 C 1.136719 -0.460938 1.597656 0.0429688 3.613281 0.0429688 Z M 8.828125 0.0429688 "/></g></g></g><g fill="#ffffff" fill-opacity="1"><g transform="translate(148.967061, 182.787103)"><g><path d="M 3.65625 0 L 13.285156 0.0429688 C 15.300781 0.0429688 15.679688 -0.671875 15.679688 -1.597656 C 15.679688 -2.480469 14.964844 -3.070312 14.417969 -3.488281 C 12.949219 -4.625 12.484375 -5.507812 12.484375 -8.027344 L 12.484375 -10.132812 C 12.484375 -11.601562 13.03125 -11.8125 14.039062 -11.8125 L 15.089844 -11.8125 C 17.234375 -11.8125 19.128906 -10.046875 19.757812 -5.800781 C 20.304688 -2.1875 20.851562 0.460938 26.484375 0.460938 C 29.886719 0.460938 32.410156 -0.628906 32.410156 -2.648438 C 32.410156 -3.238281 32.242188 -3.613281 31.738281 -3.613281 C 31.484375 -3.613281 31.066406 -3.40625 30.433594 -3.40625 C 29.511719 -3.40625 28.921875 -4.667969 28.125 -7.0625 C 26.988281 -10.46875 26.1875 -11.8125 23.078125 -12.949219 C 22.785156 -13.03125 22.785156 -13.410156 23.121094 -13.535156 C 26.734375 -15.175781 28.835938 -17.613281 28.835938 -20.851562 C 28.835938 -26.273438 24.421875 -29.761719 15.46875 -29.761719 C 13.199219 -29.761719 6.515625 -29.46875 3.574219 -29.46875 C 1.554688 -29.46875 1.136719 -28.964844 1.136719 -28.039062 C 1.136719 -27.15625 1.679688 -26.527344 2.4375 -25.894531 C 3.824219 -24.761719 4.371094 -24.003906 4.371094 -21.398438 L 4.371094 -8.027344 C 4.371094 -5.757812 3.992188 -4.835938 2.4375 -3.488281 C 1.933594 -3.070312 1.175781 -2.394531 1.175781 -1.597656 C 1.175781 -0.335938 1.640625 0 3.65625 0 Z M 14.207031 -15.34375 C 12.820312 -15.34375 12.484375 -15.722656 12.484375 -17.402344 L 12.484375 -24.296875 C 12.484375 -25.726562 12.863281 -25.894531 13.832031 -25.894531 L 14.714844 -25.894531 C 17.992188 -25.894531 19.757812 -22.742188 19.757812 -19.589844 C 19.757812 -17.109375 18.371094 -15.34375 15.175781 -15.34375 Z M 14.207031 -15.34375 "/></g></g></g><g fill="#ffffff" fill-opacity="1"><g transform="translate(192.011775, 182.787103)"><g><path d="M 25.683594 -10.089844 C 24.886719 -10.089844 24.046875 -9.753906 23.5 -8.367188 C 22.449219 -5.085938 21.3125 -3.53125 18.789062 -3.53125 L 14.417969 -3.53125 C 13.03125 -3.53125 12.570312 -3.824219 12.570312 -5.339844 L 12.570312 -12.273438 C 12.570312 -13.199219 12.695312 -13.789062 13.453125 -13.789062 L 15.132812 -13.789062 C 16.226562 -13.789062 16.984375 -13.621094 16.984375 -11.9375 C 16.984375 -10.972656 17.613281 -10.257812 18.539062 -10.257812 C 20.136719 -10.257812 20.554688 -11.351562 20.554688 -15.386719 C 20.554688 -19.421875 20.09375 -20.515625 18.539062 -20.515625 C 17.613281 -20.515625 16.984375 -19.800781 16.984375 -18.789062 C 16.984375 -17.234375 16.269531 -17.066406 15.132812 -17.066406 L 13.324219 -17.066406 C 12.695312 -17.066406 12.570312 -17.699219 12.570312 -18.621094 L 12.570312 -23.792969 C 12.570312 -25.769531 13.242188 -25.894531 14.335938 -25.894531 L 17.234375 -25.894531 C 20.050781 -25.894531 20.386719 -25.265625 22.363281 -21.019531 C 22.867188 -20.050781 23.667969 -19.335938 24.632812 -19.335938 C 26.695312 -19.335938 26.695312 -21.3125 25.390625 -25.851562 C 24.382812 -29.511719 23.457031 -30.351562 22.363281 -30.351562 C 20.765625 -30.351562 21.0625 -29.425781 17.867188 -29.425781 C 7.355469 -29.425781 4.792969 -29.46875 3.574219 -29.46875 C 1.554688 -29.46875 1.136719 -28.753906 1.136719 -27.828125 C 1.136719 -26.945312 1.890625 -26.359375 2.394531 -25.9375 C 3.992188 -24.632812 4.371094 -23.667969 4.371094 -21.398438 L 4.371094 -8.027344 C 4.371094 -5.757812 3.992188 -4.792969 2.4375 -3.488281 C 1.933594 -3.070312 1.175781 -2.394531 1.175781 -1.597656 C 1.175781 -0.335938 1.890625 0 3.910156 0 L 18.917969 0 C 22.027344 0 21.816406 0.925781 23.332031 0.925781 C 24.550781 0.925781 25.476562 0.0859375 26.484375 -3.574219 C 27.703125 -7.902344 27.828125 -10.089844 25.683594 -10.089844 Z M 25.683594 -10.089844 "/></g></g></g><g fill="#ffffff" fill-opacity="1"><g transform="translate(230.852957, 182.787103)"><g><path d="M 8.828125 0.0429688 C 10.84375 0.0429688 11.265625 -0.460938 11.265625 -1.386719 C 11.265625 -2.269531 10.71875 -2.773438 9.960938 -3.109375 C 8.28125 -3.867188 8.027344 -4.667969 8.027344 -8.027344 L 8.027344 -18.371094 C 8.027344 -18.875 8.238281 -19.167969 8.574219 -19.167969 C 8.742188 -19.167969 8.996094 -19.085938 9.289062 -18.789062 L 25.601562 -0.589844 C 25.8125 -0.335938 26.230469 0.125 27.070312 0.125 C 27.828125 0.125 28.417969 -0.421875 28.417969 -1.472656 L 28.417969 -18.957031 C 28.417969 -25.097656 28.628906 -25.433594 30.394531 -26.316406 C 31.109375 -26.652344 31.652344 -27.15625 31.652344 -28.039062 C 31.652344 -28.964844 31.191406 -29.46875 29.175781 -29.46875 L 24.003906 -29.46875 C 21.984375 -29.46875 21.566406 -28.964844 21.566406 -28.039062 C 21.566406 -27.15625 22.113281 -26.652344 22.867188 -26.316406 C 24.550781 -25.515625 24.800781 -24.761719 24.800781 -21.398438 L 24.800781 -15.597656 C 24.800781 -15.007812 24.507812 -14.714844 24.171875 -14.714844 C 23.878906 -14.714844 23.5 -14.882812 23.203125 -15.21875 L 11.558594 -28.667969 C 11.140625 -29.175781 10.59375 -29.425781 9.585938 -29.425781 L 3.574219 -29.46875 C 1.554688 -29.46875 1.136719 -28.964844 1.136719 -28.039062 C 1.136719 -27.15625 1.679688 -26.652344 2.4375 -26.316406 C 4.121094 -25.515625 4.371094 -24.761719 4.371094 -21.398438 L 4.371094 -10.425781 C 4.371094 -4.289062 4.160156 -3.953125 2.394531 -3.109375 C 1.679688 -2.773438 1.136719 -2.269531 1.136719 -1.386719 C 1.136719 -0.460938 1.597656 0.0429688 3.613281 0.0429688 Z M 8.828125 0.0429688 "/></g></g></g><g fill="#ffffff" fill-opacity="1"><g transform="translate(273.561389, 182.787103)"><g><path d="M 23.121094 0.882812 C 24.046875 0.882812 24.339844 0.460938 25.980469 -3.53125 C 28.207031 -8.996094 26.359375 -10.132812 25.265625 -10.132812 C 24.296875 -10.132812 23.667969 -9.710938 23.035156 -8.449219 C 21.355469 -5.085938 20.597656 -3.574219 18.621094 -3.574219 L 12.570312 -3.574219 C 10.972656 -3.574219 11.390625 -4.625 12.402344 -6.09375 L 26.945312 -27.113281 C 27.242188 -27.578125 27.410156 -28.207031 27.113281 -28.753906 C 26.945312 -29.089844 26.566406 -29.425781 25.8125 -29.425781 L 11.054688 -29.425781 C 7.691406 -29.425781 7.144531 -30.351562 5.757812 -30.351562 C 4.496094 -30.351562 4.203125 -29.804688 2.691406 -25.769531 C 0.796875 -20.722656 2.058594 -19.335938 3.488281 -19.335938 C 4.582031 -19.335938 5.210938 -19.839844 5.71875 -21.0625 C 7.355469 -24.96875 8.113281 -25.894531 10.214844 -25.894531 L 14.460938 -25.894531 C 15.636719 -25.894531 15.804688 -25.265625 15.089844 -24.171875 L 1.679688 -3.613281 C 1.386719 -3.152344 0.757812 -2.144531 0.757812 -1.34375 C 0.757812 -0.589844 1.34375 0 2.902344 0 L 15.300781 0 C 19.546875 0 22.152344 0.882812 23.121094 0.882812 Z M 23.121094 0.882812 "/></g></g></g><g fill="#ffffff" fill-opacity="1"><g transform="translate(312.108327, 182.787103)"><g><path d="M 8.199219 0 C 8.40625 0 8.574219 0 8.785156 0 L 13.074219 0 C 15.089844 0 15.804688 -0.335938 15.804688 -1.597656 C 15.804688 -2.394531 15.050781 -3.109375 14.546875 -3.488281 C 12.949219 -4.792969 12.570312 -5.757812 12.570312 -8.027344 L 12.570312 -21.398438 C 12.570312 -23.667969 12.949219 -24.632812 14.503906 -25.9375 C 15.007812 -26.359375 15.765625 -27.03125 15.765625 -27.828125 C 15.765625 -29.089844 15.050781 -29.425781 13.03125 -29.425781 L 8.742188 -29.425781 C 8.535156 -29.425781 8.367188 -29.425781 8.15625 -29.425781 L 3.867188 -29.425781 C 1.851562 -29.425781 1.136719 -29.089844 1.136719 -27.828125 C 1.136719 -27.03125 1.890625 -26.316406 2.394531 -25.9375 C 3.992188 -24.632812 4.371094 -23.667969 4.371094 -21.398438 L 4.371094 -8.027344 C 4.371094 -5.757812 3.992188 -4.792969 2.4375 -3.488281 C 1.933594 -3.070312 1.175781 -2.394531 1.175781 -1.597656 C 1.175781 -0.335938 1.890625 0 3.910156 0 Z M 8.199219 0 "/></g></g></g><g clip-path="url(#7a1e89727a)"><path fill="#ffffff" d="M 40.527344 154.914062 L 40.527344 154.546875 C 40.527344 150.339844 44.007812 146.910156 48.210938 147.09375 C 48.679688 147.117188 49.140625 147.179688 49.597656 147.289062 C 50.050781 147.398438 50.492188 147.550781 50.917969 147.746094 C 51.347656 147.941406 51.75 148.171875 52.132812 148.445312 C 52.515625 148.714844 52.867188 149.019531 53.191406 149.359375 C 53.515625 149.695312 53.804688 150.0625 54.058594 150.457031 C 54.3125 150.851562 54.527344 151.265625 54.699219 151.699219 C 54.875 152.136719 55.007812 152.582031 55.097656 153.042969 C 55.183594 153.503906 55.230469 153.96875 55.230469 154.4375 L 55.230469 161.71875 C 55.230469 167.152344 58.914062 174.375 64.558594 176.792969 C 61.820312 176.667969 59.164062 176.132812 56.59375 175.183594 C 55.128906 174.648438 53.726562 173.988281 52.382812 173.199219 C 48.757812 171.101562 45.851562 168.269531 43.65625 164.703125 C 41.765625 161.605469 40.726562 158.292969 40.527344 154.914062 Z M 86.257812 177.570312 C 86.898438 184.472656 82.96875 191.011719 76.59375 193.738281 L 76.507812 193.773438 C 75.328125 194.273438 74.117188 194.683594 72.875 195 C 71.636719 195.320312 70.378906 195.546875 69.101562 195.679688 C 67.828125 195.8125 66.550781 195.851562 65.269531 195.792969 C 63.992188 195.734375 62.722656 195.585938 61.464844 195.339844 C 60.207031 195.09375 58.972656 194.757812 57.765625 194.328125 C 56.558594 193.898438 55.386719 193.382812 54.257812 192.78125 C 53.125 192.179688 52.046875 191.496094 51.015625 190.734375 C 49.984375 189.972656 49.019531 189.136719 48.113281 188.230469 C 47.722656 187.839844 47.347656 187.441406 46.988281 187.035156 C 42.234375 182.484375 36.253906 166.234375 37.734375 162.132812 C 38.335938 163.808594 39.101562 165.40625 40.03125 166.925781 C 40.191406 167.191406 40.363281 167.457031 40.53125 167.714844 C 40.753906 168.058594 40.988281 168.394531 41.230469 168.726562 C 43.796875 172.242188 46.980469 175.054688 50.785156 177.164062 C 53.042969 178.425781 55.421875 179.386719 57.921875 180.050781 C 60.425781 180.714844 62.96875 181.054688 65.554688 181.078125 C 65.910156 181.105469 66.265625 181.117188 66.625 181.109375 C 67.617188 181.089844 68.589844 180.945312 69.542969 180.667969 C 70.492188 180.390625 71.394531 179.996094 72.238281 179.480469 C 73.085938 178.964844 73.851562 178.347656 74.535156 177.628906 C 75.21875 176.914062 75.796875 176.117188 76.269531 175.246094 C 76.265625 175.242188 76.265625 175.242188 76.269531 175.238281 C 78.324219 170.207031 76.675781 161.71875 71.300781 156.933594 C 73.605469 158.003906 75.710938 159.371094 77.621094 161.039062 C 79 162.246094 80.238281 163.582031 81.339844 165.042969 C 83.820312 168.320312 85.398438 171.988281 86.0625 176.046875 C 86.144531 176.554688 86.210938 177.0625 86.257812 177.570312 Z M 76.65625 174.464844 C 76.449219 174.882812 76.3125 175.160156 76.277344 175.230469 C 76.414062 174.980469 76.539062 174.726562 76.65625 174.464844 Z M 90.171875 149.242188 C 89.472656 148.542969 88.664062 148.003906 87.746094 147.632812 C 86.832031 147.257812 85.878906 147.078125 84.886719 147.089844 C 80.84375 147.132812 77.617188 150.488281 77.617188 154.535156 C 77.613281 155.277344 77.910156 155.871094 78.507812 156.3125 C 80.636719 157.902344 82.53125 159.738281 84.183594 161.820312 C 86.90625 165.210938 88.789062 169.023438 89.828125 173.246094 C 90 173.949219 90.144531 174.660156 90.257812 175.371094 C 90.464844 176.648438 90.574219 177.9375 90.589844 179.230469 C 90.632812 182.210938 90.160156 185.105469 89.175781 187.914062 C 88.941406 188.574219 88.679688 189.222656 88.390625 189.859375 C 98.402344 181.070312 94.871094 159.046875 92.1875 153.039062 C 92.1875 153.042969 91.1875 150.257812 90.171875 149.242188 Z M 90.171875 149.242188 " fill-opacity="1" fill-rule="nonzero"/></g><g fill="#ffffff" fill-opacity="1"><g transform="translate(225.986944, 203.050007)"><g><path d="M 9.859375 -9.046875 L 9.859375 -2.265625 C 9.859375 -1.421875 9.851562 -0.835938 9.84375 -0.515625 C 9.800781 0.867188 9.351562 1.910156 8.5 2.609375 C 7.65625 3.316406 6.503906 3.671875 5.046875 3.671875 C 3.734375 3.671875 2.707031 3.40625 1.96875 2.875 C 1.226562 2.34375 0.8125 1.578125 0.71875 0.578125 L 0.703125 0.40625 L 2.96875 0.40625 L 2.984375 0.5625 C 3.046875 0.976562 3.257812 1.304688 3.625 1.546875 C 4 1.796875 4.484375 1.921875 5.078125 1.921875 C 5.816406 1.921875 6.390625 1.734375 6.796875 1.359375 C 7.210938 0.992188 7.445312 0.457031 7.5 -0.25 C 7.507812 -0.476562 7.515625 -0.847656 7.515625 -1.359375 L 7.515625 -1.578125 L 6.828125 -0.578125 C 6.285156 -0.160156 5.539062 0.046875 4.59375 0.046875 C 3.332031 0.046875 2.328125 -0.359375 1.578125 -1.171875 C 0.828125 -1.992188 0.453125 -3.078125 0.453125 -4.421875 C 0.453125 -5.984375 0.863281 -7.179688 1.6875 -8.015625 C 2.519531 -8.859375 3.554688 -9.28125 4.796875 -9.28125 C 5.722656 -9.28125 6.429688 -9.109375 6.921875 -8.765625 L 7.515625 -7.84375 L 7.515625 -9.046875 Z M 3.5 -2.40625 C 3.90625 -1.863281 4.457031 -1.59375 5.15625 -1.59375 C 5.863281 -1.59375 6.429688 -1.832031 6.859375 -2.3125 C 7.296875 -2.800781 7.515625 -3.566406 7.515625 -4.609375 L 7.515625 -4.859375 C 7.515625 -5.796875 7.289062 -6.492188 6.84375 -6.953125 C 6.40625 -7.410156 5.875 -7.640625 5.25 -7.640625 C 4.539062 -7.640625 3.96875 -7.382812 3.53125 -6.875 C 3.101562 -6.375 2.890625 -5.625 2.890625 -4.625 C 2.890625 -3.695312 3.09375 -2.957031 3.5 -2.40625 Z M 3.5 -2.40625 "/></g></g></g><g fill="#ffffff" fill-opacity="1"><g transform="translate(245.446818, 203.050007)"><g><path d="M 5.671875 -9.265625 C 5.929688 -9.265625 6.15625 -9.242188 6.34375 -9.203125 L 6.34375 -7.3125 C 5.34375 -7.375 4.601562 -7.160156 4.125 -6.671875 C 3.65625 -6.179688 3.421875 -5.335938 3.421875 -4.140625 L 3.421875 0 L 1.078125 0 L 1.078125 -9.046875 L 3.421875 -9.046875 L 3.421875 -7.390625 L 4.125 -8.65625 C 4.570312 -9.0625 5.085938 -9.265625 5.671875 -9.265625 Z M 5.671875 -9.265625 "/></g></g></g><g fill="#ffffff" fill-opacity="1"><g transform="translate(260.403775, 203.050007)"><g><path d="M 1.6875 -7.953125 C 2.519531 -8.835938 3.671875 -9.28125 5.140625 -9.28125 C 6.617188 -9.28125 7.769531 -8.835938 8.59375 -7.953125 C 9.425781 -7.078125 9.84375 -5.929688 9.84375 -4.515625 C 9.84375 -3.109375 9.425781 -1.960938 8.59375 -1.078125 C 7.769531 -0.203125 6.617188 0.234375 5.140625 0.234375 C 3.671875 0.234375 2.519531 -0.203125 1.6875 -1.078125 C 0.863281 -1.960938 0.453125 -3.109375 0.453125 -4.515625 C 0.453125 -5.929688 0.863281 -7.078125 1.6875 -7.953125 Z M 3.484375 -2.234375 C 3.890625 -1.679688 4.441406 -1.40625 5.140625 -1.40625 C 5.847656 -1.40625 6.398438 -1.679688 6.796875 -2.234375 C 7.203125 -2.785156 7.40625 -3.546875 7.40625 -4.515625 C 7.40625 -5.492188 7.203125 -6.257812 6.796875 -6.8125 C 6.398438 -7.363281 5.847656 -7.640625 5.140625 -7.640625 C 4.441406 -7.640625 3.890625 -7.363281 3.484375 -6.8125 C 3.085938 -6.257812 2.890625 -5.492188 2.890625 -4.515625 C 2.890625 -3.546875 3.085938 -2.785156 3.484375 -2.234375 Z M 3.484375 -2.234375 "/></g></g></g><g fill="#ffffff" fill-opacity="1"><g transform="translate(279.200955, 203.050007)"><g><path d="M 9.421875 -9.046875 L 9.421875 0 L 7.078125 0 L 7.078125 -1.53125 L 6.375 -0.375 C 5.757812 0.03125 5.035156 0.234375 4.203125 0.234375 C 3.304688 0.234375 2.578125 0.015625 2.015625 -0.421875 C 1.453125 -0.859375 1.113281 -1.40625 1 -2.0625 C 0.945312 -2.445312 0.921875 -2.992188 0.921875 -3.703125 L 0.921875 -9.046875 L 3.265625 -9.046875 L 3.265625 -4.203125 C 3.265625 -3.773438 3.285156 -3.359375 3.328125 -2.953125 C 3.453125 -1.929688 4.035156 -1.421875 5.078125 -1.421875 C 5.691406 -1.421875 6.175781 -1.675781 6.53125 -2.1875 C 6.894531 -2.695312 7.078125 -3.445312 7.078125 -4.4375 L 7.078125 -9.046875 Z M 9.421875 -9.046875 "/></g></g></g><g fill="#ffffff" fill-opacity="1"><g transform="translate(298.202037, 203.050007)"><g><path d="M 6.4375 -9.28125 C 7.6875 -9.28125 8.671875 -8.851562 9.390625 -8 C 10.109375 -7.15625 10.46875 -6.050781 10.46875 -4.6875 C 10.46875 -3.125 10.050781 -1.910156 9.21875 -1.046875 C 8.394531 -0.191406 7.367188 0.234375 6.140625 0.234375 C 5.210938 0.234375 4.503906 0.0664062 4.015625 -0.265625 L 3.421875 -1.203125 L 3.421875 3.328125 L 1.078125 3.328125 L 1.078125 -9.046875 L 3.421875 -9.046875 L 3.421875 -7.671875 L 4.09375 -8.65625 C 4.613281 -9.070312 5.394531 -9.28125 6.4375 -9.28125 Z M 5.671875 -1.40625 C 6.378906 -1.40625 6.953125 -1.675781 7.390625 -2.21875 C 7.828125 -2.757812 8.046875 -3.53125 8.046875 -4.53125 C 8.046875 -5.46875 7.835938 -6.21875 7.421875 -6.78125 C 7.003906 -7.351562 6.453125 -7.640625 5.765625 -7.640625 C 5.054688 -7.640625 4.488281 -7.394531 4.0625 -6.90625 C 3.632812 -6.425781 3.421875 -5.664062 3.421875 -4.625 L 3.421875 -4.203125 C 3.421875 -3.242188 3.640625 -2.535156 4.078125 -2.078125 C 4.523438 -1.628906 5.054688 -1.40625 5.671875 -1.40625 Z M 5.671875 -1.40625 "/></g></g></g><g fill="#ffffff" fill-opacity="1"><g transform="translate(317.627923, 203.050007)"><g><path d="M 4.296875 -9.28125 C 5.335938 -9.28125 6.171875 -9.019531 6.796875 -8.5 C 7.421875 -7.976562 7.785156 -7.285156 7.890625 -6.421875 L 5.546875 -6.421875 C 5.378906 -7.296875 4.910156 -7.734375 4.140625 -7.734375 C 3.804688 -7.734375 3.546875 -7.644531 3.359375 -7.46875 C 3.171875 -7.289062 3.078125 -7.054688 3.078125 -6.765625 C 3.078125 -6.421875 3.226562 -6.144531 3.53125 -5.9375 C 3.84375 -5.738281 4.378906 -5.546875 5.140625 -5.359375 C 6.117188 -5.109375 6.851562 -4.757812 7.34375 -4.3125 C 7.832031 -3.875 8.078125 -3.257812 8.078125 -2.46875 C 8.078125 -1.59375 7.726562 -0.921875 7.03125 -0.453125 C 6.332031 0.00390625 5.441406 0.234375 4.359375 0.234375 C 3.222656 0.234375 2.300781 -0.015625 1.59375 -0.515625 C 0.894531 -1.015625 0.484375 -1.757812 0.359375 -2.75 L 2.703125 -2.75 C 2.796875 -2.28125 2.988281 -1.921875 3.28125 -1.671875 C 3.582031 -1.429688 3.953125 -1.3125 4.390625 -1.3125 C 4.785156 -1.3125 5.101562 -1.394531 5.34375 -1.5625 C 5.59375 -1.726562 5.71875 -1.972656 5.71875 -2.296875 C 5.71875 -2.648438 5.550781 -2.9375 5.21875 -3.15625 C 4.882812 -3.375 4.328125 -3.582031 3.546875 -3.78125 C 2.628906 -4 1.925781 -4.320312 1.4375 -4.75 C 0.957031 -5.175781 0.71875 -5.757812 0.71875 -6.5 C 0.71875 -7.351562 1.039062 -8.03125 1.6875 -8.53125 C 2.34375 -9.03125 3.210938 -9.28125 4.296875 -9.28125 Z M 4.296875 -9.28125 "/></g></g></g></svg>